<svg width="20" height="22" viewBox="0 0 20 22" fill="none" xmlns="http://www.w3.org/2000/svg">
<path fill-rule="evenodd" clip-rule="evenodd" d="M9.71926 2.67231C11.0131 2.62039 12.3089 2.65654 13.5982 2.78054C14.2237 2.77235 14.8451 2.88653 15.4302 3.11715C16.2373 3.5089 16.886 4.18456 17.2621 5.0253C17.4829 5.63625 17.5915 6.28502 17.5821 6.93778C17.5821 7.94759 17.686 8.2842 17.686 10.9781C17.7359 12.3258 17.7012 13.6755 17.5821 15.0185C17.59 15.67 17.4804 16.3172 17.259 16.9266C16.8829 17.7674 16.2342 18.443 15.427 18.8348C14.842 19.0654 14.2206 19.1796 13.5951 19.1714C12.6256 19.1714 12.3025 19.2796 9.71614 19.2796C8.42324 19.3303 7.12854 19.2931 5.8403 19.1681C5.21481 19.1763 4.59341 19.0621 4.00837 18.8315C3.20192 18.4409 2.55333 17.7668 2.17643 16.9277C1.95503 16.3183 1.84541 15.6711 1.85328 15.0195C1.85328 14.0097 1.74937 13.6731 1.74937 10.9792C1.69951 9.6315 1.73423 8.28185 1.85328 6.93886C1.84541 6.28735 1.95503 5.64009 2.17643 5.03071C2.36448 4.61411 2.61963 4.23413 2.93082 3.90725C3.1835 3.51467 3.56776 3.23446 4.00837 3.12148C4.59341 2.89086 5.21481 2.77668 5.8403 2.78487C7.12965 2.66087 8.42539 2.62472 9.71926 2.67664V2.67231ZM9.71926 0.876724C8.39077 0.826162 7.06054 0.86231 5.73639 0.984957C4.92501 0.983987 4.12031 1.13768 3.36205 1.43845C2.70818 1.66062 2.11638 2.04593 1.63818 2.56083C1.14385 3.05892 0.773928 3.67535 0.560635 4.35642C0.220175 5.13021 0.0705248 5.98028 0.125252 6.82955C0.00750403 8.20879 -0.0272006 9.59436 0.0213425 10.9781C-0.0273744 12.3633 0.00733036 13.7503 0.125252 15.131C0.1235 15.9744 0.269639 16.8111 0.556479 17.5998C0.769771 18.2809 1.13969 18.8973 1.63403 19.3954C2.11222 19.9103 2.70402 20.2956 3.35789 20.5178C4.11511 20.8166 4.91835 20.9688 5.72808 20.967C7.05361 21.0898 8.38523 21.1259 9.7151 21.0752C11.045 21.1259 12.3766 21.0898 13.7021 20.967C14.5119 20.9688 15.3151 20.8166 16.0723 20.5178C16.7225 20.285 17.3131 19.9007 17.7993 19.3943C18.2855 18.8879 18.6543 18.2727 18.8779 17.5955C19.1647 16.8068 19.3109 15.9701 19.3091 15.1267C19.3091 14.0043 19.413 13.6677 19.413 10.9738C19.4617 9.58859 19.427 8.20157 19.3091 6.82089C19.3109 5.97747 19.1647 5.14081 18.8779 4.35209C18.6646 3.67102 18.2947 3.05459 17.8003 2.5565C17.322 2.04332 16.7306 1.65953 16.0775 1.43845C15.3202 1.13807 14.5166 0.984383 13.7063 0.984957C12.3808 0.862126 11.0491 0.825978 9.71926 0.876724ZM9.71926 5.8154C9.06542 5.80428 8.4161 5.93022 7.80993 6.18574C7.20376 6.44125 6.6531 6.82112 6.1907 7.30276C5.7283 7.78439 5.36361 8.35796 5.1183 8.98936C4.87299 9.62075 4.75208 10.2971 4.76275 10.9781C4.76275 11.9992 5.05345 12.9974 5.59808 13.8464C6.1427 14.6954 6.9168 15.3571 7.82249 15.7479C8.72817 16.1386 9.72476 16.2408 10.6862 16.0416C11.6477 15.8424 12.5309 15.3507 13.224 14.6287C13.9172 13.9067 14.3893 12.9868 14.5805 11.9853C14.7718 10.9838 14.6736 9.9458 14.2985 9.00243C13.9233 8.05907 13.288 7.25276 12.4729 6.68548C11.6579 6.11819 10.6996 5.8154 9.71926 5.8154ZM9.71926 14.3453C9.29261 14.3533 8.86878 14.2717 8.47307 14.1054C8.07737 13.939 7.71791 13.6913 7.41618 13.377C7.11444 13.0627 6.87661 12.6883 6.7169 12.2762C6.55719 11.864 6.47887 11.4225 6.48662 10.9781C6.47887 10.5337 6.55719 10.0923 6.7169 9.68009C6.87661 9.26792 7.11444 8.89351 7.41618 8.57922C7.71791 8.26493 8.07737 8.01721 8.47307 7.85085C8.86878 7.68449 9.29261 7.60292 9.71926 7.61099C10.1459 7.60292 10.5697 7.68449 10.9654 7.85085C11.3612 8.01721 11.7206 8.26493 12.0223 8.57922C12.3241 8.89351 12.5619 9.26792 12.7216 9.68009C12.8813 10.0923 12.9596 10.5337 12.9519 10.9781C12.9596 11.4225 12.8813 11.864 12.7216 12.2762C12.5619 12.6883 12.3241 13.0627 12.0223 13.377C11.7206 13.6913 11.3612 13.939 10.9654 14.1054C10.5697 14.2717 10.1459 14.3533 9.71926 14.3453ZM14.8919 4.35534C14.6574 4.35534 14.4282 4.42776 14.2332 4.56346C14.0382 4.69916 13.8863 4.89203 13.7965 5.11769C13.7068 5.34334 13.6833 5.59165 13.7291 5.8312C13.7748 6.07076 13.8877 6.2908 14.0535 6.46351C14.2194 6.63622 14.4306 6.75384 14.6606 6.80149C14.8906 6.84914 15.129 6.82468 15.3456 6.73121C15.5623 6.63774 15.7474 6.47946 15.8777 6.27637C16.008 6.07329 16.0775 5.83452 16.0775 5.59028C16.0748 5.26362 15.949 4.95115 15.7273 4.72017C15.5055 4.48918 15.2055 4.35816 14.8919 4.35534Z" fill="white"/>
</svg>
