<svg width="20" height="18" viewBox="0 0 20 18" fill="none" xmlns="http://www.w3.org/2000/svg">
<path fill-rule="evenodd" clip-rule="evenodd" d="M6.16345 17.0733C7.65307 17.0873 9.13044 16.792 10.5093 16.2047C11.8881 15.6174 13.1408 14.7498 14.1942 13.6526C15.2475 12.5554 16.0805 11.2506 16.6443 9.81441C17.2082 8.3782 17.4917 6.83937 17.4782 5.28777V4.72604C18.2312 4.12912 18.8863 3.40906 19.4182 2.59385C18.6956 2.9211 17.9346 3.14746 17.155 3.26706C17.9564 2.74287 18.5639 1.95174 18.8789 1.02231C18.1003 1.47374 17.2667 1.81342 16.4007 2.03212C16.0362 1.60428 15.5879 1.26273 15.086 1.03048C14.5841 0.798235 14.0403 0.680669 13.4912 0.685702C12.439 0.703267 11.4347 1.14644 10.6906 1.92149C9.9465 2.69653 9.52102 3.74267 9.50416 4.83861C9.47834 5.14232 9.51373 5.44831 9.60807 5.73694C8.0225 5.65716 6.4716 5.22537 5.05927 4.47051C3.64693 3.71564 2.40577 2.65512 1.41892 1.35999C1.06421 2.00979 0.87833 2.7447 0.879631 3.49219C0.893854 4.17059 1.05653 4.83666 1.35527 5.43967C1.654 6.04268 2.08092 6.56672 2.6035 6.97188C1.95572 6.95795 1.32327 6.76402 0.771565 6.41015C0.770513 7.37141 1.09359 8.30252 1.68442 9.04097C2.27524 9.77941 3.09627 10.2783 4.0042 10.4505C3.65311 10.5476 3.28911 10.5842 2.92666 10.5587C2.6707 10.578 2.41369 10.5412 2.17227 10.4505C2.4352 11.2831 2.93872 12.0108 3.61391 12.5339C4.28911 13.057 5.103 13.35 5.9442 13.3728C4.52778 14.5251 2.78492 15.1565 0.987697 15.1684C0.661026 15.1879 0.333494 15.1514 0.018219 15.0601C1.80134 16.409 3.95685 17.1182 6.16034 17.0809" fill="white"/>
</svg>
